<svg width="1440" height="440" viewBox="0 0 1440 440" fill="none" xmlns="http://www.w3.org/2000/svg">
<g opacity="0.25">
<mask id="mask0_118_2" style="mask-type:alpha" maskUnits="userSpaceOnUse" x="0" y="0" width="1440" height="440">
<rect width="1440" height="440" fill="#FFFDED"/>
</mask>
<g mask="url(#mask0_118_2)">
<path d="M753.548 -752.5C775.867 -725.701 795.198 -696.414 810.962 -665.301C817.019 -653.312 822.702 -640.618 822.826 -627.177C822.951 -614.192 817.848 -601.789 813.949 -589.426C805.154 -561.383 802.167 -531.515 805.237 -502.31C807.187 -483.891 811.501 -465.057 806.731 -447.178C799.803 -421.25 775.742 -403.951 752.179 -391.133C728.616 -378.356 702.813 -366.989 686.759 -345.501C684.187 -342.099 681.905 -338.324 681.117 -334.134C680.246 -329.446 681.324 -324.634 681.407 -319.822C681.615 -303.768 668.257 -288.667 652.327 -286.884C646.81 -286.261 640.878 -286.967 635.982 -284.312C626.524 -279.209 626.939 -265.851 623.496 -255.646C618.601 -241.127 604.662 -231.917 594.955 -220.053C585.248 -208.189 581.141 -187.737 594.001 -179.399C606.57 -171.268 622.5 -182.012 633.493 -192.134C644.279 -202.09 655.065 -212.047 665.851 -222.003C674.728 -230.175 688.169 -238.721 697.628 -231.212C705.261 -225.155 703.601 -213.125 699.577 -204.289C692.027 -187.82 678.462 -174.213 661.993 -166.58C656.434 -164.008 650.46 -162.058 645.565 -158.366C630.672 -147.248 630.465 -125.221 633.12 -106.802C635.775 -88.3827 639.384 -67.8067 628.598 -52.665C639.84 -45.3638 652.783 -38.3945 665.975 -40.8836C679.126 -43.4141 689.372 -60.464 680.744 -70.7105C677.798 -74.2367 673.194 -76.3524 671.119 -80.4593C666.805 -89.005 676.18 -98.09 685.016 -101.782C693.853 -105.474 704.68 -108.959 707.127 -118.21C709.119 -125.843 704.058 -134.264 706.92 -141.607C711.608 -153.72 729.653 -149.821 741.144 -143.805C742.555 -162.058 748.28 -185.165 766.45 -187.488C770.93 -188.069 775.659 -187.115 779.932 -188.65C787.441 -191.346 790.344 -200.058 794.327 -206.944C798.351 -213.83 807.892 -219.763 813.658 -214.287C816.313 -211.756 816.853 -207.815 817.06 -204.165C818.595 -173.466 803.08 -142.478 777.567 -125.345C771.594 -121.321 765.039 -117.961 760.144 -112.651C748.694 -100.164 749.69 -81.1645 748.155 -64.2805C744.67 -26.0738 723.929 10.2662 692.774 32.6676C690.119 56.1475 657.43 62.1212 633.825 61.0426C610.221 59.964 578.942 64.4028 575.25 87.7583C573.466 98.959 579.44 111.529 573.632 121.277C570.438 126.629 564.464 129.533 559.112 132.685C527.045 151.768 508.834 191.676 515.471 228.348C518.998 247.804 528.622 268.214 520.74 286.342C516.467 296.174 507.672 303.309 502.362 312.643C497.052 321.977 497.135 336.372 506.884 340.811C511.281 342.802 516.591 342.221 520.906 344.461C529.742 349.066 528.995 361.594 531.111 371.343C534.844 388.559 552.724 401.502 570.23 399.593C587.737 397.685 602.463 381.258 602.422 363.627C602.422 356.948 600.597 350.02 603.003 343.798C609.599 327.038 634.406 333.966 652.12 330.813C668.174 327.951 681.241 313.016 681.905 296.713C682.361 285.098 677.259 273.524 679.333 262.074C680.827 254.068 685.639 247.181 690.368 240.544C706.215 218.35 722.02 196.156 737.867 174.004C741.85 168.403 746.039 162.347 746.205 155.46C746.371 149.155 743.136 143.264 742.389 137.041C740.895 125.094 748.363 114.018 755.456 104.269C767.113 88.2561 788.685 70.6669 803.744 83.527C809.676 88.6295 811.667 96.8433 812.829 104.559C821.167 159.982 803.08 218.806 765.039 259.958C760.393 264.978 755.124 270.62 755.539 277.465C755.83 282.775 759.605 287.255 760.974 292.44C767.03 314.842 730.483 325.088 723.182 347.158C719.075 359.561 725.297 372.836 731.354 384.452C737.369 395.984 743.841 408.056 754.71 415.233C765.578 422.41 782.214 422.659 790.013 412.205C803.038 394.698 785.574 360.018 806.067 352.509C821.043 353.297 834.11 367.236 833.986 382.212C842.075 385.572 848.92 374.745 849.418 365.95C849.915 357.197 849.127 346.577 856.387 341.682C866.343 335.003 879.286 348.153 878.996 360.142C878.705 372.131 871.529 382.875 869.33 394.698C867.131 406.521 873.935 422.078 885.882 420.875C898.825 419.547 901.273 402.124 901.853 389.14C902.434 376.155 911.395 359.022 923.342 364.125C928.32 366.24 930.934 371.633 934.709 375.491C948.689 389.762 975.819 377.648 981.254 358.4C986.688 339.151 976.815 318.824 964.204 303.309C951.551 287.794 935.787 274.644 925.997 257.22C922.637 251.247 920.023 244.817 916.539 238.926C912.183 231.542 906.458 225.07 902.019 217.769C890.196 198.23 888.413 172.966 897.456 151.976C898.452 149.694 899.655 147.329 901.895 146.209C906.168 144.011 911.146 147.744 913.884 151.727C922.139 163.674 923.01 179.355 930.394 191.842C937.779 204.328 958.479 211.132 965.739 198.604C969.14 212.667 972.542 226.73 975.944 240.793C977.147 245.688 978.972 251.33 983.743 252.948C989.177 254.814 994.404 250.251 999.299 247.223C1015.02 237.474 1038.54 244.526 1046.34 261.286C1067.79 256.557 1073.1 226.813 1064.64 206.568C1056.17 186.283 1039.33 170.311 1031.45 149.818C1023.57 129.325 1030.91 99.5813 1052.69 96.7604C1063.77 95.3084 1074.68 101.531 1085.83 100.618C1096.99 99.7057 1106.45 83.2366 1096.45 78.217C1093.68 76.848 1090.32 77.014 1087.62 75.5206C1077.25 69.7958 1089.73 54.4052 1101.35 52.331C1115.58 49.8005 1130.55 51.4184 1143.87 56.9357C1154.78 47.3115 1144.41 27.814 1130.39 23.956C1116.37 20.098 1101.68 25.3664 1087.25 26.9843C1051.9 30.9667 1015.06 10.5981 999.673 -21.469C995.607 -29.8903 992.371 -39.6805 984.241 -44.3267C978.848 -47.3965 972.293 -47.6039 966.61 -50.1345C954.082 -55.7348 949.353 -70.5861 942.217 -82.326C935.082 -94.0245 918.364 -103.732 908.491 -94.1905C900.982 -132.771 896.087 -179.44 925.997 -204.911C931.058 -209.226 937.073 -212.835 940.185 -218.684C943.462 -224.907 942.798 -232.332 942.964 -239.343C943.96 -286.51 991.832 -327.04 1038.54 -320.237C1049.66 -318.619 1061.03 -314.802 1071.77 -317.914C1082.56 -321.066 1090.48 -335.793 1082.43 -343.592C1077.41 -348.446 1069.03 -347.948 1063.48 -352.221C1059.45 -355.291 1057.54 -360.31 1055.84 -365.081C1049.12 -383.832 1042.36 -402.582 1035.64 -421.292C1031.99 -431.455 1027.8 -442.324 1018.71 -448.215C1004.4 -457.507 985.734 -444.772 973.538 -451.865C966.61 -455.848 953.418 -485.633 949.726 -493.681C931.805 -532.676 960.014 -579.719 947.569 -620.788C940.102 -645.43 919.941 -665.301 922.056 -692.473C923.674 -713.505 951.634 -743.415 934.335 -763.12C926.536 -772.039 913.096 -772.454 901.273 -772.205C857.341 -771.334 813.41 -770.463 769.478 -769.55C763.38 -769.425 756.867 -769.177 751.806 -765.733C746.745 -762.29 749.856 -757.063 753.756 -752.376L753.548 -752.5Z" fill="#BAD19D"/>
<path d="M661.246 -410.59C651.912 -392.544 642.371 -374.167 627.851 -359.938C617.231 -349.525 604.164 -341.643 594.664 -330.194C585.164 -318.744 579.937 -301.653 587.819 -289C592.258 -281.906 599.974 -277.551 605.699 -271.452C611.423 -265.354 614.991 -255.274 609.598 -248.844C602.753 -254.486 593.129 -245.691 590.225 -237.311C587.321 -228.931 584.583 -218.228 575.913 -216.486C560.564 -213.416 549.405 -243.036 536.171 -234.698C532.853 -232.582 531.276 -228.641 529.783 -224.99C504.602 -162.598 452.581 -114.892 397.117 -76.768C378.947 -64.2813 359.616 -52.3339 337.878 -48.6004C316.14 -44.8668 291.416 -51.0479 278.597 -68.969C293.2 -80.543 308.175 -91.5778 323.525 -102.115C322.736 -112.652 305.396 -108.379 296.643 -114.27C290.669 -118.294 289.798 -126.549 286.147 -132.73C280.049 -143.101 266.277 -146.752 254.495 -144.553C242.714 -142.354 232.343 -135.509 222.387 -128.789C228.651 -113.523 234.417 -98.0908 239.727 -82.4513C228.236 -74.6108 209.775 -81.7461 206.581 -95.3113C204.548 -103.899 207.784 -113.564 203.802 -121.446C200.151 -128.665 190.278 -131.9 183.06 -128.291C175.841 -124.682 172.481 -114.892 176.007 -107.632C168.582 -118.211 150.744 -115.016 142.779 -104.853C134.814 -94.6891 133.901 -80.8334 133.32 -67.9319C133.03 -60.9626 133.196 -52.8318 138.755 -48.5589C131.785 -45.4891 125.024 -40.7599 122.203 -33.6661C119.382 -26.5724 122.327 -16.9896 129.587 -14.7079C134.772 -13.0901 140.207 -15.3717 145.475 -16.7821C162.608 -21.3869 182.147 -15.5791 193.97 -2.34572C185.715 -1.43307 184.843 10.141 186.295 18.3133C190.651 42.4155 197.662 70.0854 219.939 80.249C246.115 62.2864 276.15 50.0071 307.387 44.4482C314.108 43.2452 321.284 42.4155 327.631 45.029C342.4 51.1272 343.769 73.3626 334.02 86.0567C324.271 98.7508 308.051 104.268 292.785 109.08C266.774 117.294 240.059 125.632 212.804 124.346C185.549 123.06 157.132 110.117 144.977 85.6833C135.809 67.3059 137.095 45.3194 142.198 25.4486C134.191 20.6779 124.65 29.431 121.124 38.0597C117.598 46.6884 115.15 57.2668 106.646 61.0833C100.88 63.6968 94.035 62.1204 87.9369 63.7798C67.1534 69.3801 71.3433 101.779 56.6994 117.585C53.4222 121.152 48.9834 124.056 47.49 128.661C43.7564 140.069 59.9352 147.577 71.8411 146.582C83.747 145.586 98.4739 142.848 105.485 152.597C97.6442 161.35 89.4718 170.808 87.854 182.465C86.2361 194.123 94.6573 207.812 106.356 207.024C116.851 206.319 125.563 194.786 135.768 197.441C141.036 198.81 144.562 203.664 149.333 206.319C163.106 213.91 178.662 201.05 190.568 190.721C202.474 180.391 223.714 173.215 231.43 186.946C220.146 205.24 195.588 208.434 175.344 215.653C155.058 222.829 134.482 244.982 145.766 263.276C151.656 259.211 160.368 259.958 165.512 264.936C152.528 274.228 160.7 297.044 175.675 302.645C190.61 308.245 207.203 302.562 222.138 296.878C231.637 293.269 241.096 289.702 250.596 286.093C254.454 284.641 258.436 283.064 261.215 280.036C268.973 271.449 262.294 257.469 253.582 249.836C244.871 242.202 233.587 235.772 230.6 224.53C227.862 214.284 234.5 202.461 244.663 199.391C254.827 196.321 266.857 202.544 270.259 212.624C271.918 217.561 271.711 222.995 273.744 227.766C278.846 239.506 295.896 241.456 306.848 234.86C317.8 228.264 324.064 216.234 329.747 204.784C311.868 194.828 299.298 172.509 306.931 153.51C314.564 134.552 346.755 130.154 354.803 148.946C359.284 159.359 355.135 171.223 353.434 182.424C350.282 203.456 356.089 224.696 362.644 244.899C369.987 267.591 379.403 291.403 399.108 304.802C418.813 318.201 451.503 314.468 459.924 292.149C461.874 287.047 462.164 280.783 458.762 276.551C455.941 273.067 451.254 271.615 448.059 268.503C441.381 261.99 443.455 250.333 449.221 243.032C454.987 235.731 463.45 231.085 470.419 224.904C484.026 212.915 491.784 194.62 490.995 176.533C474.651 166.328 458.306 156.165 442.003 145.96C436.278 142.392 430.263 138.451 427.691 132.228C424.745 125.01 427.318 116.838 429.973 109.537C436.112 92.6942 442.833 76.0591 450.051 59.6314C452.955 53.0355 456.273 46.0661 462.413 42.2496C476.6 33.455 494.065 46.4395 504.976 59.0506C513.189 68.509 521.486 81.2446 516.384 92.6942C508.916 109.454 494.563 117.543 501.74 138.451C505.266 148.656 511.571 157.948 513.272 168.61C515.347 181.553 508.585 193.293 509.248 205.821C509.912 218.349 519.122 227.808 518.043 240.045C517.213 249.379 508.792 257.883 511.405 266.885C514.434 277.422 528.58 278.294 539.324 280.368C550.11 282.401 561.477 295.883 552.765 302.52C565.21 301.981 578.153 300.653 588.856 294.223C599.559 287.793 607.275 274.85 603.956 262.862C601.55 254.15 593.876 246.849 594.415 237.805C595.162 225.899 609.723 219.926 621.629 220.672C633.534 221.419 645.44 226.024 657.139 223.535C668.837 221.046 678.586 205.904 670.331 197.275C665.145 191.841 655.023 191.426 652.493 184.374C648.593 173.505 665.892 169.357 675.516 162.927C689.289 153.8 688.169 132.228 678.959 118.497C669.75 104.766 655.065 95.8884 643.325 84.2729C639.01 80.0415 634.82 75.2294 629.137 73.2382C616.941 69.0068 604.952 79.0045 595.079 87.3427C585.206 95.6395 569.981 102.858 560.398 94.2291C556.789 90.9933 555.088 86.2227 553.47 81.6594C544.385 55.6075 535.3 29.597 526.215 3.54503C523.187 -5.16661 520.2 -14.9983 524.349 -23.2121C532.106 -38.5197 556.374 -33.5002 568.197 -21.0964C580.062 -8.65124 587.031 8.77203 601.799 17.5252C598.605 -1.7649 603.002 -22.2165 613.83 -38.4782C618.434 -45.4061 624.159 -54.9474 618.434 -61.0041C616.443 -63.1197 613.498 -64.0324 610.801 -65.1525C594.125 -72.0388 583.173 -90.7896 585.372 -108.711C563.592 -104.396 554.632 -64.5302 534.097 -72.91C522.606 -77.5562 522.44 -93.7349 525.386 -105.765C533.724 -139.948 553.968 -174.131 587.031 -186.078C620.094 -198.067 664.647 -176.579 665.768 -141.442C666.348 -122.691 655.397 -105.558 651.953 -87.0975C650.004 -76.685 650.46 -66.0236 650.916 -55.4452C652.078 -29.2273 653.239 -3.00941 654.401 23.2085C654.982 36.2345 655.977 50.3805 664.647 60.0878C673.318 69.795 692.525 70.2928 697.129 58.0965C699.95 50.6294 696.217 42.54 693.271 35.1559C681.117 4.58216 681.863 -30.9281 695.304 -60.9626C706.712 -66.1481 717.705 -52.8732 722.186 -41.1332C735.046 -7.36523 736.249 30.7171 725.546 65.2318C721.688 77.677 716.295 89.8318 715.092 102.816C713.889 115.801 717.954 130.32 729.031 137.207C734.88 117.875 749.441 101.364 767.86 93.0675C769.809 103.024 774.663 112.399 781.674 119.742C802.25 110.408 791.837 75.6028 808.182 60.0048C819.092 49.5508 840.332 54.7778 845.144 69.0898C858.544 67.8453 867.961 51.3347 862.153 39.1798C859.747 34.1603 855.391 30.1363 853.607 24.8264C846.472 3.5036 884.222 -19.3956 869.495 -36.404C859.415 -48.061 841.079 -36.2796 829.92 -25.6597C812.165 -8.73421 785.158 6.20003 764.458 -6.99189C743.011 -20.6816 750.187 -59.2617 774.29 -67.517C798.392 -75.7309 826.186 -54.9059 829.007 -29.6421C837.345 -47.3143 845.974 -65.4428 859.913 -79.174C864.683 -83.9032 870.325 -88.4664 871.901 -95.0209C872.731 -98.547 872.275 -102.239 871.777 -105.807C870.367 -116.427 868.749 -127.586 862.319 -136.173C855.889 -144.76 842.987 -149.489 834.151 -143.433C830.376 -140.819 827.68 -136.588 823.365 -135.012C813.99 -131.568 805.818 -142.728 803.37 -152.435C800.922 -162.142 798.848 -174.048 789.514 -177.616C762.591 -173.716 759.065 -121.861 732.183 -126.217C723.721 -127.586 717.623 -134.804 712.727 -141.856C685.97 -180.644 673.649 -229.139 678.669 -275.974C680.08 -289.042 684.726 -304.266 697.337 -308.124C712.935 -312.895 727.164 -295.472 728.782 -279.251C730.4 -263.031 724.716 -246.769 726.168 -230.508C727.579 -214.287 741.351 -196.615 757.074 -200.847C762.508 -202.34 767.237 -206.24 772.838 -206.779C788.892 -208.272 800.591 -182.386 815.4 -188.816C827.099 -193.919 822.619 -211.964 813.99 -221.423C805.403 -230.84 793.58 -241.045 796.276 -253.531C798.848 -265.437 812.828 -270.166 824.278 -274.398C835.727 -278.629 848.588 -288.585 844.812 -300.159C843.07 -305.594 837.926 -309.369 835.769 -314.679C832.077 -323.805 837.428 -336.167 830.335 -343.012C823.614 -349.484 812.704 -344.672 803.37 -344.63C787.482 -344.63 774.829 -363.505 780.886 -378.191C767.403 -364.169 741.974 -368.981 729.487 -383.874C717 -398.767 714.885 -419.882 716.834 -439.255C720.983 -480.615 740.605 -518.573 754.792 -557.651C771.884 -604.652 781.383 -654.433 782.794 -704.462C783.126 -716.866 782.794 -730.1 775.783 -740.346C770.556 -748.062 752.967 -757.52 744.878 -748.187C736.249 -738.23 748.736 -736.737 751.432 -727.32C760.683 -694.838 753.506 -654.101 746.703 -621.536C731.022 -546.865 696.051 -477.711 661.287 -410.424L661.246 -410.59Z" fill="#889673"/>
<path d="M1006.69 -351.974C1006.69 -345.004 1005.28 -337.703 1008.01 -331.315C1014.98 -314.887 1038.67 -318.745 1056.22 -315.675C1069.58 -313.352 1081.81 -305.055 1088.91 -293.523C1092.47 -286.719 1085.67 -279.418 1080.86 -273.444C1069.12 -258.967 1067.09 -239.262 1061.9 -221.382C1056.72 -203.502 1044.89 -184.461 1026.35 -182.719C1019.21 -182.014 1011.71 -184.046 1004.94 -181.599C990.797 -176.455 993.618 -150.859 1008.51 -148.909C1015.07 -148.038 1022.53 -150.859 1027.97 -147.043C1035.19 -141.94 1031.95 -130.656 1034.6 -122.277C1039.54 -106.845 1062.03 -106.679 1076.38 -114.187C1090.73 -121.696 1103.97 -134.017 1120.14 -133.685C1126.12 -121.571 1115.12 -107.591 1103.05 -101.576C1090.98 -95.561 1076.71 -93.0305 1067.17 -83.5306C1057.63 -73.9893 1058.62 -53.2058 1071.98 -51.2561C1076.34 -50.6338 1080.78 -52.2102 1085.09 -51.5465C1095.34 -49.9286 1099.24 -37.7323 1102.89 -28.025C1106.54 -18.3593 1116.91 -7.9053 1125.62 -13.5056C1130.39 3.79319 1157.15 9.22762 1168.31 -4.79397C1174.9 -13.0908 1177.06 -26.3242 1187.27 -29.2695C1193.16 -30.9704 1199.25 -28.191 1205.19 -26.6561C1218.96 -23.0884 1234.97 -26.822 1244.02 -37.8152C1253.06 -48.8085 1252.93 -66.9785 1242.27 -76.3539C1233.19 -84.3603 1218.59 -85.4389 1212.03 -95.6024C1207.26 -102.987 1208.51 -112.569 1206.93 -121.198C1204.85 -132.772 1197.6 -142.977 1195.73 -154.593C1192.49 -174.712 1209 -195.786 1229.33 -197.487C1232.36 -197.736 1235.64 -197.57 1238.13 -195.786C1243.44 -191.97 1242.07 -183.922 1240.9 -177.45C1238.21 -162.641 1239.91 -147.084 1245.68 -133.187C1248.37 -126.715 1253.76 -119.663 1260.65 -120.783C1268.91 -122.152 1270.65 -133.104 1270.4 -141.442C1270.07 -153.016 1269.69 -164.632 1269.36 -176.206C1275.34 -169.61 1283.01 -164.59 1291.47 -161.811C1299.11 -166.084 1287.95 -178.446 1291.81 -186.328C1295.04 -192.965 1306.41 -189.439 1308.69 -182.387C1310.93 -175.335 1307.61 -167.868 1304.91 -160.981C1297.57 -142.272 1294.5 -121.903 1295.95 -101.825C1297.95 -74.4041 1308.07 -45.9876 1298.32 -20.3505C1284.55 15.8236 1239.58 27.4806 1212.07 54.6941C1192.33 74.233 1182.25 101.281 1165.82 123.64C1150.72 144.175 1130.18 160.603 1106.83 170.849C1094.55 176.242 1077.91 178.897 1069.66 168.36C1066.8 164.71 1065.26 159.815 1061.24 157.533C1049.79 151.061 1039.91 172.84 1026.76 171.969C1023.65 171.762 1020.71 170.186 1017.6 169.937C1004.98 168.817 1001.09 189.517 1010.67 197.814C1020.25 206.111 1034.52 204.991 1047.09 203.456C1060.03 201.838 1072.94 200.22 1085.88 198.602C1089.61 198.146 1093.43 197.648 1097.12 198.478C1113.71 202.128 1114.5 225.401 1110.81 241.994C1109.03 250.001 1106.66 258.671 1100.11 263.566C1093.51 268.461 1081.56 266.221 1080.4 258.09C1067.71 268.337 1054.97 278.625 1042.28 288.871C1038.59 291.858 1034.65 295.26 1034.07 299.947C1033.36 305.589 1037.76 310.484 1039.75 315.836C1046.43 333.674 1026.64 356.864 1039.46 370.927C1049.58 382.044 1068.37 373.333 1078.29 362.008C1088.2 350.682 1097.74 335.956 1112.76 335.001C1125.04 334.213 1138.98 343.091 1148.6 335.375C1157.94 327.908 1153.41 311.646 1161.17 302.561C1169.05 293.31 1184.61 297.127 1193.86 305.092C1203.07 313.015 1209.63 324.133 1220.2 330.148C1231.49 336.578 1246.55 335.665 1257 327.991C1267.45 320.275 1272.81 306.212 1270.03 293.517C1268.86 288.208 1266.75 281.86 1270.65 278.085C1272.6 276.177 1275.5 275.721 1277.99 274.601C1287.91 270.079 1289.15 255.809 1284.26 246.06C1279.36 236.353 1270.36 229.425 1263.51 221.003C1241.86 194.412 1245.01 151.061 1270.28 127.872C1274.17 124.304 1279.19 120.986 1284.42 121.857C1291.64 123.06 1295.21 131.149 1297.49 138.077C1303.63 156.703 1309.81 175.33 1315.95 193.956C1318.02 200.178 1320.22 206.691 1325.03 211.172C1332.92 218.514 1345.69 218.058 1355.19 213.039C1364.69 208.019 1371.7 199.39 1378.42 191.011C1384.65 183.253 1391.04 175.081 1392.86 165.29C1394.69 155.5 1390.16 143.802 1380.62 141.064C1377.1 140.068 1373.07 140.234 1370.21 137.952C1361.83 131.232 1374.77 119.368 1376.31 108.706C1377.8 98.5427 1368.01 90.3289 1365.56 80.3312C1362.7 68.5083 1371.29 56.146 1382.45 51.3339C1393.61 46.5218 1406.47 47.7248 1418.25 50.6287C1462.01 61.539 1502.92 95.141 1546.89 85.1434C1553.45 83.65 1559.96 81.078 1564.94 76.5562C1581.99 61.0412 1574.93 30.2185 1591.07 13.7494C1602.19 2.42426 1619.86 2.17538 1635.54 -0.355144C1651.14 -3.01012 1669.14 -12.0951 1669.52 -27.942C1669.81 -39.765 1659.77 -49.4307 1657.74 -61.0877C1656.28 -69.426 1659.02 -77.8058 1660.72 -86.0611C1662.42 -94.3164 1662.88 -103.733 1657.74 -110.412C1652.55 -117.091 1639.98 -117.672 1636.83 -109.831C1644.38 -132.689 1642.59 -149.158 1639.48 -160.11C1633.01 -182.802 1618.41 -189.522 1615.92 -215.408C1614.76 -227.356 1617.37 -231.089 1614.14 -241.958C1609.41 -257.763 1596.67 -273.984 1589.99 -271.951C1576.01 -267.761 1591.82 -185.083 1575.43 -180.645C1574.6 -180.437 1572.32 -180.188 1568.05 -181.101C1560.95 -182.594 1553.94 -186.286 1546.72 -185.415C1526.69 -183.092 1525.48 -152.518 1509.18 -140.613C1501.3 -134.846 1490.72 -134.266 1482.13 -129.661C1455.54 -115.473 1459.73 -73.3255 1437.12 -53.3717C1434.8 -51.2975 1431.86 -49.4722 1428.79 -49.9286C1426.13 -50.3434 1424.06 -52.4176 1422.4 -54.5333C1409.79 -70.5461 1409.16 -92.8645 1412.11 -113.026C1415.05 -133.187 1420.99 -153.224 1419.37 -173.509C1418.08 -189.647 1408.21 -208.107 1392.03 -208.024C1386.85 -208.024 1381.54 -206.033 1376.6 -207.651C1367.93 -210.555 1366.44 -222.046 1360.75 -229.181C1352 -240.299 1335.36 -239.303 1321.3 -240.548C1274.05 -244.82 1238.66 -283.898 1206.35 -318.62C1168.14 -359.648 1127.4 -398.187 1086.71 -436.684C1066.75 -455.559 1044.19 -475.555 1016.72 -476.343C1012.54 -476.467 1008.05 -475.969 1004.9 -473.231C1002.41 -471.074 1001.21 -467.88 1000.05 -464.81C993.66 -447.802 975.034 -417.726 980.385 -399.763C985.944 -381.22 1006.73 -375.951 1006.73 -351.766L1006.69 -351.974Z" fill="#889673"/>
</g>
</g>
</svg>
