<svg width="440" height="440" viewBox="0 0 440 440" fill="none" xmlns="http://www.w3.org/2000/svg">
<g opacity="0.25">
<mask id="mask0_118_2" style="mask-type:alpha" maskUnits="userSpaceOnUse" x="0" y="0" width="440" height="440">
<rect width="440" height="440" fill="#FFFDED"/>
</mask>
<g mask="url(#mask0_118_2)">
<path d="M229.548 -752.5C251.867 -725.701 271.198 -696.414 286.962 -665.301C293.019 -653.312 298.702 -640.618 298.826 -627.177C298.951 -614.192 293.848 -601.789 289.949 -589.426C281.154 -561.383 278.167 -531.515 281.237 -502.31C283.187 -483.891 287.501 -465.057 282.731 -447.178C275.803 -421.25 251.742 -403.951 228.179 -391.133C204.616 -378.356 178.813 -366.989 162.759 -345.501C160.187 -342.099 157.905 -338.324 157.117 -334.134C156.246 -329.446 157.324 -324.634 157.407 -319.822C157.615 -303.768 144.257 -288.667 128.327 -286.884C122.81 -286.261 116.878 -286.967 111.982 -284.312C102.524 -279.209 102.939 -265.851 99.4958 -255.646C94.6007 -241.127 80.662 -231.917 70.9548 -220.053C61.2475 -208.189 57.1405 -187.737 70.0006 -179.399C82.5702 -171.268 98.5001 -182.012 109.493 -192.134C120.279 -202.09 131.065 -212.047 141.851 -222.003C150.728 -230.175 164.169 -238.721 173.628 -231.212C181.261 -225.155 179.601 -213.125 175.577 -204.289C168.027 -187.82 154.462 -174.213 137.993 -166.58C132.434 -164.008 126.46 -162.058 121.565 -158.366C106.672 -147.248 106.465 -125.221 109.12 -106.802C111.775 -88.3827 115.384 -67.8067 104.598 -52.665C115.84 -45.3638 128.783 -38.3945 141.975 -40.8836C155.126 -43.4141 165.372 -60.464 156.744 -70.7105C153.798 -74.2367 149.194 -76.3524 147.119 -80.4593C142.805 -89.005 152.18 -98.09 161.016 -101.782C169.853 -105.474 180.68 -108.959 183.127 -118.21C185.119 -125.843 180.058 -134.264 182.92 -141.607C187.608 -153.72 205.653 -149.821 217.144 -143.805C218.555 -162.058 224.28 -185.165 242.45 -187.488C246.93 -188.069 251.659 -187.115 255.932 -188.65C263.441 -191.346 266.344 -200.058 270.327 -206.944C274.351 -213.83 283.892 -219.763 289.658 -214.287C292.313 -211.756 292.853 -207.815 293.06 -204.165C294.595 -173.466 279.08 -142.478 253.567 -125.345C247.594 -121.321 241.039 -117.961 236.144 -112.651C224.694 -100.164 225.69 -81.1645 224.155 -64.2805C220.67 -26.0738 199.929 10.2662 168.774 32.6676C166.119 56.1475 133.43 62.1212 109.825 61.0426C86.2208 59.964 54.9419 64.4028 51.2498 87.7583C49.466 98.959 55.4397 111.529 49.6319 121.277C46.4376 126.629 40.4639 129.533 35.1125 132.685C3.04536 151.768 -15.1661 191.676 -8.52864 228.348C-5.0025 247.804 4.62174 268.214 -3.26022 286.342C-7.53307 296.174 -16.3277 303.309 -21.6376 312.643C-26.9476 321.977 -26.8646 336.372 -17.1159 340.811C-12.7186 342.802 -7.40859 342.221 -3.09425 344.461C5.74184 349.066 4.99509 361.594 7.11077 371.343C10.8443 388.559 28.724 401.502 46.2303 399.593C63.7365 397.685 78.4633 381.258 78.4218 363.627C78.4218 356.948 76.5966 350.02 79.0026 343.798C85.5986 327.038 110.406 333.966 128.12 330.813C144.174 327.951 157.241 313.016 157.905 296.713C158.361 285.098 153.259 273.524 155.333 262.074C156.827 254.068 161.639 247.181 166.368 240.544C182.215 218.35 198.02 196.156 213.867 174.004C217.85 168.403 222.039 162.347 222.205 155.46C222.371 149.155 219.136 143.264 218.389 137.041C216.895 125.094 224.363 114.018 231.456 104.269C243.113 88.2561 264.685 70.6669 279.744 83.527C285.676 88.6295 287.667 96.8433 288.829 104.559C297.167 159.982 279.08 218.806 241.039 259.958C236.393 264.978 231.124 270.62 231.539 277.465C231.83 282.775 235.605 287.255 236.974 292.44C243.03 314.842 206.483 325.088 199.182 347.158C195.075 359.561 201.297 372.836 207.354 384.452C213.369 395.984 219.841 408.056 230.71 415.233C241.578 422.41 258.214 422.659 266.013 412.205C279.038 394.698 261.574 360.018 282.067 352.509C297.043 353.297 310.11 367.236 309.986 382.212C318.075 385.572 324.92 374.745 325.418 365.95C325.915 357.197 325.127 346.577 332.387 341.682C342.343 335.003 355.286 348.153 354.996 360.142C354.705 372.131 347.529 382.875 345.33 394.698C343.131 406.521 349.935 422.078 361.882 420.875C374.825 419.547 377.273 402.124 377.853 389.14C378.434 376.155 387.395 359.022 399.342 364.125C404.32 366.24 406.934 371.633 410.709 375.491C424.689 389.762 451.819 377.648 457.254 358.4C462.688 339.151 452.815 318.824 440.204 303.309C427.551 287.794 411.787 274.644 401.997 257.22C398.637 251.247 396.023 244.817 392.539 238.926C388.183 231.542 382.458 225.07 378.019 217.769C366.196 198.23 364.413 172.966 373.456 151.976C374.452 149.694 375.655 147.329 377.895 146.209C382.168 144.011 387.146 147.744 389.884 151.727C398.139 163.674 399.01 179.355 406.394 191.842C413.779 204.328 434.479 211.132 441.739 198.604C445.14 212.667 448.542 226.73 451.944 240.793C453.147 245.688 454.972 251.33 459.743 252.948C465.177 254.814 470.404 250.251 475.299 247.223C491.022 237.474 514.543 244.526 522.342 261.286C543.789 256.557 549.099 226.813 540.637 206.568C532.174 186.283 515.331 170.311 507.449 149.818C499.567 129.325 506.91 99.5813 528.689 96.7604C539.765 95.3084 550.676 101.531 561.835 100.618C572.994 99.7057 582.452 83.2366 572.455 78.217C569.675 76.848 566.315 77.014 563.619 75.5206C553.248 69.7958 565.734 54.4052 577.35 52.331C591.579 49.8005 606.555 51.4184 619.871 56.9357C630.781 47.3115 620.41 27.814 606.389 23.956C592.367 20.098 577.682 25.3664 563.245 26.9843C527.901 30.9667 491.063 10.5981 475.673 -21.469C471.607 -29.8903 468.371 -39.6805 460.241 -44.3267C454.848 -47.3965 448.293 -47.6039 442.61 -50.1345C430.082 -55.7348 425.353 -70.5861 418.217 -82.326C411.082 -94.0245 394.364 -103.732 384.491 -94.1905C376.982 -132.771 372.087 -179.44 401.997 -204.911C407.058 -209.226 413.073 -212.835 416.185 -218.684C419.462 -224.907 418.798 -232.332 418.964 -239.343C419.96 -286.51 467.832 -327.04 514.543 -320.237C525.661 -318.619 537.028 -314.802 547.772 -317.914C558.558 -321.066 566.481 -335.793 558.433 -343.592C553.414 -348.446 545.034 -347.948 539.475 -352.221C535.451 -355.291 533.543 -360.31 531.842 -365.081C525.122 -383.832 518.36 -402.582 511.639 -421.292C507.989 -431.455 503.799 -442.324 494.714 -448.215C480.402 -457.507 461.734 -444.772 449.538 -451.865C442.61 -455.848 429.418 -485.633 425.726 -493.681C407.805 -532.676 436.014 -579.719 423.569 -620.788C416.102 -645.43 395.941 -665.301 398.056 -692.473C399.674 -713.505 427.634 -743.415 410.335 -763.12C402.536 -772.039 389.096 -772.454 377.273 -772.205C333.341 -771.334 289.41 -770.463 245.478 -769.55C239.38 -769.425 232.867 -769.177 227.806 -765.733C222.745 -762.29 225.856 -757.063 229.756 -752.376L229.548 -752.5Z" fill="#BAD19D"/>
<path d="M137.246 -410.59C127.912 -392.544 118.371 -374.167 103.851 -359.938C93.2312 -349.525 80.1638 -341.643 70.6639 -330.194C61.1641 -318.744 55.9371 -301.653 63.8191 -289C68.2579 -281.906 75.9739 -277.551 81.6987 -271.452C87.4235 -265.354 90.9911 -255.274 85.5982 -248.844C78.7534 -254.486 69.129 -245.691 66.2251 -237.311C63.3212 -228.931 60.5834 -218.228 51.9132 -216.486C36.5641 -213.416 25.4049 -243.036 12.1715 -234.698C8.85275 -232.582 7.27644 -228.641 5.78302 -224.99C-19.3978 -162.598 -71.4188 -114.892 -126.883 -76.768C-145.053 -64.2813 -164.384 -52.3339 -186.122 -48.6004C-207.86 -44.8668 -232.584 -51.0479 -245.403 -68.969C-230.8 -80.543 -215.825 -91.5778 -200.475 -102.115C-201.264 -112.652 -218.604 -108.379 -227.357 -114.27C-233.331 -118.294 -234.202 -126.549 -237.853 -132.73C-243.951 -143.101 -257.723 -146.752 -269.505 -144.553C-281.286 -142.354 -291.657 -135.509 -301.613 -128.789C-295.349 -113.523 -289.583 -98.0908 -284.273 -82.4513C-295.764 -74.6108 -314.225 -81.7461 -317.419 -95.3113C-319.452 -103.899 -316.216 -113.564 -320.198 -121.446C-323.849 -128.665 -333.722 -131.9 -340.94 -128.291C-348.159 -124.682 -351.519 -114.892 -347.993 -107.632C-355.418 -118.211 -373.256 -115.016 -381.221 -104.853C-389.186 -94.6891 -390.099 -80.8334 -390.68 -67.9319C-390.97 -60.9626 -390.804 -52.8318 -385.245 -48.5589C-392.215 -45.4891 -398.976 -40.7599 -401.797 -33.6661C-404.618 -26.5724 -401.673 -16.9896 -394.413 -14.7079C-389.228 -13.0901 -383.793 -15.3717 -378.525 -16.7821C-361.392 -21.3869 -341.853 -15.5791 -330.03 -2.34572C-338.285 -1.43307 -339.157 10.141 -337.705 18.3133C-333.349 42.4155 -326.338 70.0854 -304.061 80.249C-277.885 62.2864 -247.85 50.0071 -216.613 44.4482C-209.892 43.2452 -202.716 42.4155 -196.369 45.029C-181.6 51.1272 -180.231 73.3626 -189.98 86.0567C-199.729 98.7508 -215.949 104.268 -231.215 109.08C-257.226 117.294 -283.941 125.632 -311.196 124.346C-338.451 123.06 -366.868 110.117 -379.023 85.6833C-388.191 67.3059 -386.905 45.3194 -381.802 25.4486C-389.809 20.6779 -399.35 29.431 -402.876 38.0597C-406.402 46.6884 -408.85 57.2668 -417.354 61.0833C-423.12 63.6968 -429.965 62.1204 -436.063 63.7798C-456.847 69.3801 -452.657 101.779 -467.301 117.585C-470.578 121.152 -475.017 124.056 -476.51 128.661C-480.244 140.069 -464.065 147.577 -452.159 146.582C-440.253 145.586 -425.526 142.848 -418.515 152.597C-426.356 161.35 -434.528 170.808 -436.146 182.465C-437.764 194.123 -429.343 207.812 -417.644 207.024C-407.149 206.319 -398.437 194.786 -388.232 197.441C-382.964 198.81 -379.438 203.664 -374.667 206.319C-360.894 213.91 -345.338 201.05 -333.432 190.721C-321.526 180.391 -300.286 173.215 -292.57 186.946C-303.854 205.24 -328.412 208.434 -348.656 215.653C-368.942 222.829 -389.518 244.982 -378.234 263.276C-372.344 259.211 -363.632 259.958 -358.488 264.936C-371.472 274.228 -363.3 297.044 -348.325 302.645C-333.39 308.245 -316.797 302.562 -301.862 296.878C-292.363 293.269 -282.904 289.702 -273.404 286.093C-269.546 284.641 -265.564 283.064 -262.785 280.036C-255.027 271.449 -261.706 257.469 -270.418 249.836C-279.129 242.202 -290.413 235.772 -293.4 224.53C-296.138 214.284 -289.5 202.461 -279.337 199.391C-269.173 196.321 -257.143 202.544 -253.741 212.624C-252.082 217.561 -252.289 222.995 -250.256 227.766C-245.154 239.506 -228.104 241.456 -217.152 234.86C-206.2 228.264 -199.936 216.234 -194.253 204.784C-212.132 194.828 -224.702 172.509 -217.069 153.51C-209.436 134.552 -177.245 130.154 -169.197 148.946C-164.716 159.359 -168.865 171.223 -170.566 182.424C-173.718 203.456 -167.911 224.696 -161.356 244.899C-154.013 267.591 -144.597 291.403 -124.892 304.802C-105.187 318.201 -72.4973 314.468 -64.0761 292.149C-62.1263 287.047 -61.8359 280.783 -65.2376 276.551C-68.0585 273.067 -72.7463 271.615 -75.9406 268.503C-82.6195 261.99 -80.5453 250.333 -74.779 243.032C-69.0127 235.731 -60.5499 231.085 -53.5806 224.904C-39.9739 212.915 -32.2164 194.62 -33.0046 176.533C-49.3493 166.328 -65.694 156.165 -81.9972 145.96C-87.722 142.392 -93.7372 138.451 -96.3092 132.228C-99.2546 125.01 -96.6825 116.838 -94.0275 109.537C-87.8879 92.6942 -81.1675 76.0591 -73.9493 59.6314C-71.0454 53.0355 -67.7267 46.0661 -61.5871 42.2496C-47.3996 33.455 -29.9348 46.4395 -19.0245 59.0506C-10.8107 68.509 -2.51385 81.2446 -7.61638 92.6942C-15.0835 109.454 -29.437 117.543 -22.2602 138.451C-18.7341 148.656 -12.4285 157.948 -10.7277 168.61C-8.65349 181.553 -15.4154 193.293 -14.7516 205.821C-14.0879 218.349 -4.87848 227.808 -5.95706 240.045C-6.78674 249.379 -15.208 257.883 -12.5945 266.885C-9.5662 277.422 4.57989 278.294 15.3242 280.368C26.1101 282.401 37.4767 295.883 28.765 302.52C41.2102 301.981 54.1533 300.653 64.8561 294.223C75.559 287.793 83.2751 274.85 79.9564 262.862C77.5503 254.15 69.8757 246.849 70.415 237.805C71.1617 225.899 85.7226 219.926 97.6285 220.672C109.534 221.419 121.44 226.024 133.139 223.535C144.837 221.046 154.586 205.904 146.331 197.275C141.145 191.841 131.023 191.426 128.493 184.374C124.593 173.505 141.892 169.357 151.516 162.927C165.289 153.8 164.169 132.228 154.959 118.497C145.75 104.766 131.065 95.8884 119.325 84.2729C115.01 80.0415 110.82 75.2294 105.137 73.2382C92.9409 69.0068 80.952 79.0045 71.0788 87.3427C61.2056 95.6395 45.981 102.858 36.3982 94.2291C32.7891 90.9933 31.0882 86.2227 29.4703 81.6594C20.3853 55.6075 11.3003 29.597 2.21531 3.54503C-0.813021 -5.16661 -3.79979 -14.9983 0.348609 -23.2121C8.10612 -38.5197 32.3742 -33.5002 44.1971 -21.0964C56.0615 -8.65124 63.0309 8.77203 77.7992 17.5252C74.6049 -1.7649 79.0023 -22.2165 89.8296 -38.4782C94.4343 -45.4061 100.159 -54.9474 94.4343 -61.0041C92.4431 -63.1197 89.4977 -64.0324 86.8012 -65.1525C70.1246 -72.0388 59.1729 -90.7896 61.3715 -108.711C39.5924 -104.396 30.6318 -64.5302 10.0973 -72.91C-1.39382 -77.5562 -1.55965 -93.7349 1.38572 -105.765C9.724 -139.948 29.9681 -174.131 63.0309 -186.078C96.0936 -198.067 140.647 -176.579 141.768 -141.442C142.348 -122.691 131.397 -105.558 127.953 -87.0975C126.004 -76.685 126.46 -66.0236 126.916 -55.4452C128.078 -29.2273 129.239 -3.00941 130.401 23.2085C130.982 36.2345 131.977 50.3805 140.647 60.0878C149.318 69.795 168.525 70.2928 173.129 58.0965C175.95 50.6294 172.217 42.54 169.271 35.1559C157.117 4.58216 157.863 -30.9281 171.304 -60.9626C182.712 -66.1481 193.705 -52.8732 198.186 -41.1332C211.046 -7.36523 212.249 30.7171 201.546 65.2318C197.688 77.677 192.295 89.8318 191.092 102.816C189.889 115.801 193.954 130.32 205.031 137.207C210.88 117.875 225.441 101.364 243.86 93.0675C245.809 103.024 250.663 112.399 257.674 119.742C278.25 110.408 267.837 75.6028 284.182 60.0048C295.092 49.5508 316.332 54.7778 321.144 69.0898C334.544 67.8453 343.961 51.3347 338.153 39.1798C335.747 34.1603 331.391 30.1363 329.607 24.8264C322.472 3.5036 360.222 -19.3956 345.495 -36.404C335.415 -48.061 317.079 -36.2796 305.92 -25.6597C288.165 -8.73421 261.158 6.20003 240.458 -6.99189C219.011 -20.6816 226.187 -59.2617 250.29 -67.517C274.392 -75.7309 302.186 -54.9059 305.007 -29.6421C313.345 -47.3143 321.974 -65.4428 335.913 -79.174C340.683 -83.9032 346.325 -88.4664 347.901 -95.0209C348.731 -98.547 348.275 -102.239 347.777 -105.807C346.367 -116.427 344.749 -127.586 338.319 -136.173C331.889 -144.76 318.987 -149.489 310.151 -143.433C306.376 -140.819 303.68 -136.588 299.365 -135.012C289.99 -131.568 281.818 -142.728 279.37 -152.435C276.922 -162.142 274.848 -174.048 265.514 -177.616C238.591 -173.716 235.065 -121.861 208.183 -126.217C199.721 -127.586 193.623 -134.804 188.727 -141.856C161.97 -180.644 149.649 -229.139 154.669 -275.974C156.08 -289.042 160.726 -304.266 173.337 -308.124C188.935 -312.895 203.164 -295.472 204.782 -279.251C206.4 -263.031 200.716 -246.769 202.168 -230.508C203.579 -214.287 217.351 -196.615 233.074 -200.847C238.508 -202.34 243.237 -206.24 248.838 -206.779C264.892 -208.272 276.591 -182.386 291.4 -188.816C303.099 -193.919 298.619 -211.964 289.99 -221.423C281.403 -230.84 269.58 -241.045 272.276 -253.531C274.848 -265.437 288.828 -270.166 300.278 -274.398C311.727 -278.629 324.588 -288.585 320.812 -300.159C319.07 -305.594 313.926 -309.369 311.769 -314.679C308.077 -323.805 313.428 -336.167 306.335 -343.012C299.614 -349.484 288.704 -344.672 279.37 -344.63C263.482 -344.63 250.829 -363.505 256.886 -378.191C243.403 -364.169 217.974 -368.981 205.487 -383.874C193 -398.767 190.885 -419.882 192.834 -439.255C196.983 -480.615 216.605 -518.573 230.792 -557.651C247.884 -604.652 257.383 -654.433 258.794 -704.462C259.126 -716.866 258.794 -730.1 251.783 -740.346C246.556 -748.062 228.967 -757.52 220.878 -748.187C212.249 -738.23 224.736 -736.737 227.432 -727.32C236.683 -694.838 229.506 -654.101 222.703 -621.536C207.022 -546.865 172.051 -477.711 137.287 -410.424L137.246 -410.59Z" fill="#889673"/>
</g>
</g>
</svg>
