<svg width="89" height="30" viewBox="0 0 89 30" fill="none" xmlns="http://www.w3.org/2000/svg">
<path d="M24.1743 16.6623C24.1743 18.3253 23.7999 19.9004 23.1303 21.3088L21.6735 20.3981L20.9909 19.9712C21.4304 18.9569 21.6735 17.8375 21.6735 16.6623C21.6735 15.4871 21.4304 14.3677 20.9909 13.3534L21.6735 12.9265L23.1303 12.0158C23.7999 13.4243 24.1743 14.9993 24.1743 16.6623Z" fill="#146C76"/>
<path d="M21.6735 20.3978L20.9909 19.9708L18.373 18.3349C18.2199 18.2396 18.146 18.0563 18.1897 17.8814C18.2876 17.4909 18.3391 17.0827 18.3391 16.662C18.3391 16.2413 18.2876 15.8331 18.1897 15.4426C18.146 15.2676 18.2204 15.0849 18.373 14.9891L20.9909 13.3531L23.1304 12.0155L24.5992 11.0976C24.9793 10.8601 25.1058 10.3634 24.8808 9.97605C24.8059 9.8464 24.7283 9.71832 24.6491 9.59179C24.4273 9.23774 24.1889 8.8941 23.9358 8.56347C21.5376 5.42955 17.7799 3.39009 13.5443 3.32604C13.4297 3.32448 13.3376 3.23232 13.3376 3.11778V1.25065C13.3376 0.560242 12.7779 0 12.0869 0C11.3965 0 10.8363 0.559721 10.8363 1.25065V3.38905C10.8363 3.48849 10.766 3.57336 10.6681 3.59315C9.96259 3.73633 9.27738 3.93523 8.61717 4.18515C8.48076 4.2367 8.33549 4.13621 8.33549 3.99042V1.25065C8.33549 0.560242 7.77577 0 7.08484 0C6.39443 0 5.83419 0.559721 5.83419 1.25065V5.41602C5.83419 5.55243 5.7665 5.67948 5.65508 5.75862C2.24625 8.16464 0.0151728 12.1301 7.33785e-05 16.6172C-0.0243981 23.9779 6.07526 30 13.436 30H23.3407C23.801 30 24.1743 29.6267 24.1743 29.1664V22.5388C24.1743 22.1795 23.9889 21.8453 23.6843 21.6552L23.1304 21.309L21.6735 20.3983V20.3978ZM21.2565 27.4992H13.4334C7.46701 27.4992 2.49461 22.6179 2.50033 16.6516C2.50294 13.6723 3.70829 10.9752 5.65612 9.01801C5.72172 8.95189 5.83471 8.99823 5.83471 9.09143V10.8289C5.83471 11.5193 6.39443 12.0796 7.08536 12.0796C7.77577 12.0796 8.33601 11.5198 8.33601 10.8289V7.30293C8.33601 7.1436 8.42661 6.99833 8.56927 6.92804C10.0084 6.22201 11.6267 5.82474 13.3376 5.82474C16.5876 5.82474 19.5034 7.25555 21.4897 9.5215C21.6589 9.71467 21.6152 10.0141 21.397 10.15L19.6642 11.2335L17.2968 12.7132C17.0031 12.8965 16.6277 12.8793 16.3517 12.6705C15.5072 12.0311 14.4529 11.6547 13.3105 11.6604C10.6004 11.675 8.3761 13.878 8.33653 16.5875C8.29592 19.384 10.5504 21.6635 13.3376 21.6635C14.4716 21.6635 15.5176 21.2861 16.3564 20.6498C16.6303 20.4421 17.0052 20.4285 17.2968 20.6107L19.6642 22.0905L21.4288 23.1938C21.5814 23.2891 21.6735 23.4562 21.6735 23.6353V27.0822C21.6735 27.3123 21.4871 27.4992 21.2565 27.4992ZM15.8363 16.575V16.75C15.8207 17.204 15.6842 17.6268 15.4583 17.9881C15.2266 18.3588 14.8991 18.665 14.5117 18.8712C14.1618 19.0576 13.7619 19.1633 13.3376 19.1633C11.9562 19.1633 10.8368 18.0438 10.8368 16.6625C10.8368 15.2812 11.9562 14.1617 13.3376 14.1617C13.7624 14.1617 14.1618 14.2674 14.5117 14.4538C14.8991 14.66 15.2266 14.9662 15.4583 15.3369C15.6842 15.6977 15.8207 16.121 15.8363 16.575Z" fill="#130C03"/>
<path d="M49.7104 21.5004V14.0027H47.5887V11.8034H54.2116V14.0027H52.0899V21.5004H49.7109H49.7104Z" fill="#130C03"/>
<path d="M32.3254 16.6904C32.3254 13.6809 34.6273 11.6232 37.5337 11.6232C39.2826 11.6232 40.8644 12.3303 41.8803 13.848L39.784 14.9409C39.2181 14.1693 38.485 13.7579 37.5592 13.7579C35.9259 13.7579 34.7814 15.031 34.7814 16.7029C34.7814 18.3747 36.029 19.6223 37.4822 19.6223C38.6781 19.6223 39.5398 18.9022 39.694 17.9504V17.9374H37.6623V16.1114H42.3562V16.5227C42.3562 19.6863 40.4656 21.6669 37.4566 21.6669C34.6143 21.6669 32.3254 19.6223 32.3254 16.6898V16.6904Z" fill="#130C03"/>
<path d="M43.988 21.5006V11.8041H46.367V21.5006H43.988Z" fill="#130C03"/>
<path d="M75.1805 21.5006V11.8041H77.5595V21.5006H75.1805Z" fill="#130C03"/>
<path d="M86.4122 11.8041H88.7401V21.5006H86.8111L81.9501 15.3921L81.9886 21.5006H79.6482V11.8041H81.6288L86.4898 17.8741L86.4127 11.8041H86.4122Z" fill="#130C03"/>
<path d="M59.9755 19.4684C58.4968 19.4684 57.2492 18.3109 57.2492 16.6521C57.2492 15.0833 58.4452 13.8358 60.0015 13.8358C60.7679 13.8358 61.437 14.1258 61.9238 14.6058C62.1587 13.8561 62.5242 13.1547 63.01 12.5278C62.1602 11.9603 61.1246 11.6364 60.0151 11.6364C57.1602 11.6364 54.7938 13.7712 54.7938 16.639C54.7938 19.6485 57.1727 21.6672 59.9765 21.6672C61.096 21.6672 62.1389 21.3537 62.9943 20.7966C62.5143 20.1702 62.1524 19.4647 61.9207 18.7056C61.4266 19.1836 60.7476 19.4684 59.9765 19.4684H59.9755Z" fill="#130C03"/>
<path d="M68.5035 11.6368C66.7119 11.6368 65.1129 12.4777 64.17 13.8127C63.6108 14.6052 63.2822 15.5715 63.2822 16.6394C63.2822 17.7073 63.6097 18.7351 64.1648 19.5265C65.1056 20.8683 66.7015 21.6675 68.465 21.6675C71.3328 21.6675 73.6993 19.6098 73.6993 16.6649C73.6993 13.72 71.3459 11.6368 68.5035 11.6368ZM68.465 19.4687C66.9863 19.4687 65.7387 18.3113 65.7387 16.6524C65.7387 15.0836 66.9347 13.8361 68.491 13.8361C70.0473 13.8361 71.2433 15.0706 71.2433 16.6654C71.2433 18.2603 70.0473 19.4687 68.4655 19.4687H68.465Z" fill="#130C03"/>
</svg>
