<svg width="184" height="140" viewBox="0 0 184 140" fill="none" xmlns="http://www.w3.org/2000/svg">
<path d="M179.069 58.1997L133.778 5.7992C132.405 4.14033 130.682 2.80462 128.733 1.88777C126.783 0.970923 124.654 0.495591 122.499 0.495591C120.344 0.495591 118.215 0.970923 116.265 1.88777C114.315 2.80462 112.593 4.14033 111.22 5.7992L107.154 10.5052L103.085 5.7992C101.712 4.14092 99.9895 2.80572 98.0401 1.88923C96.0906 0.972742 93.9623 0.497535 91.8075 0.497535C89.6526 0.497535 87.5244 0.972742 85.5749 1.88923C83.6254 2.80572 81.9028 4.14092 80.5303 5.7992L76.5973 10.3459L72.6642 5.79579C71.2917 4.13693 69.569 2.80138 67.6192 1.88453C65.6694 0.967682 63.5407 0.492188 61.3854 0.492188C59.2301 0.492188 57.1014 0.967682 55.1516 1.88453C53.2018 2.80138 51.4791 4.13693 50.1066 5.79579L4.81508 58.1997C-0.836798 64.7378 -0.836798 74.9863 4.81508 81.5244L50.1066 133.925C51.4936 135.568 53.2193 136.893 55.1661 137.809C57.1129 138.726 59.2348 139.212 61.3871 139.235C63.5388 139.212 65.66 138.725 67.6062 137.809C69.5524 136.892 71.2776 135.567 72.6642 133.925L76.5973 129.375L80.527 133.925C81.8995 135.584 83.6223 136.919 85.5721 137.836C87.5219 138.753 89.6505 139.228 91.8058 139.228C93.9611 139.228 96.0898 138.753 98.0396 137.836C99.9894 136.919 101.712 135.584 103.085 133.925L107.154 129.219L111.22 133.925C112.607 135.568 114.333 136.893 116.28 137.809C118.226 138.726 120.348 139.212 122.501 139.235C124.652 139.212 126.773 138.725 128.72 137.809C130.666 136.892 132.391 135.567 133.778 133.925L179.069 81.5244C184.724 74.9863 184.724 64.7378 179.069 58.1997ZM89.8991 13.8737C90.1083 13.5602 90.3917 13.3032 90.7244 13.1254C91.057 12.9475 91.4285 12.8544 91.8058 12.8544C92.1832 12.8544 92.5546 12.9475 92.8873 13.1254C93.2199 13.3032 93.5034 13.5602 93.7125 13.8737L97.7752 18.57C98.11 18.9574 98.2943 19.452 98.2943 19.9638C98.2943 20.4755 98.11 20.9702 97.7752 21.3577L93.5596 26.233C93.3589 26.4648 93.1106 26.6507 92.8315 26.7782C92.5524 26.9056 92.249 26.9717 91.9421 26.9717C91.6352 26.9717 91.3319 26.9056 91.0528 26.7782C90.7737 26.6507 90.5254 26.4648 90.3247 26.233L85.9761 21.1984C85.6415 20.8115 85.4574 20.3172 85.4574 19.8061C85.4574 19.2949 85.6415 18.8008 85.9761 18.4139L89.8991 13.8737ZM65.9285 81.5244L82.5517 100.773C82.8865 101.161 83.0707 101.656 83.0707 102.167C83.0707 102.679 82.8865 103.174 82.5517 103.561L78.1998 108.593C77.9994 108.824 77.7513 109.01 77.4725 109.138C77.1937 109.265 76.8906 109.331 76.584 109.331C76.2773 109.331 75.9743 109.265 75.6954 109.138C75.4166 109.01 75.1686 108.824 74.9682 108.593L44.6076 73.4529C42.9852 71.5745 42.9852 68.143 44.6076 66.2711L74.9815 31.1349C75.1819 30.9032 75.4299 30.7172 75.7087 30.5898C75.9876 30.4623 76.2906 30.3964 76.5973 30.3964C76.9039 30.3964 77.207 30.4623 77.4858 30.5898C77.7646 30.7172 78.0127 30.9032 78.2131 31.1349L82.565 36.1695C82.8996 36.5565 83.0837 37.0505 83.0837 37.5617C83.0837 38.0729 82.8996 38.5671 82.565 38.954L65.9418 58.2031C60.2766 64.7378 60.2766 74.9863 65.9285 81.5244ZM75.3007 73.4529C73.6782 71.5745 73.6782 68.143 75.3007 66.2711L90.3247 48.8871C90.5254 48.6553 90.7737 48.4694 91.0528 48.342C91.3319 48.2145 91.6352 48.1485 91.9421 48.1485C92.249 48.1485 92.5524 48.2145 92.8315 48.342C93.1106 48.4694 93.3589 48.6553 93.5596 48.8871L108.584 66.2711C109.47 67.1856 109.987 68.3952 110.034 69.6671C110.082 70.939 109.656 72.1833 108.84 73.1609L93.5463 90.837C93.3456 91.0688 93.0972 91.2546 92.8181 91.3821C92.5391 91.5096 92.2357 91.5756 91.9288 91.5756C91.6219 91.5756 91.3186 91.5096 91.0395 91.3821C90.7604 91.2546 90.5121 91.0688 90.3114 90.837L75.3007 73.4529ZM117.956 81.5244C123.608 74.9863 123.608 64.7378 117.956 58.1997L101.333 38.9506C100.998 38.5637 100.814 38.0696 100.814 37.5585C100.814 37.0473 100.998 36.5532 101.333 36.1663L105.545 31.2876C105.746 31.0558 105.994 30.8697 106.273 30.7423C106.552 30.6148 106.855 30.5489 107.162 30.5489C107.469 30.5489 107.773 30.6148 108.052 30.7423C108.331 30.8697 108.579 31.0558 108.78 31.2876L139.034 66.2677C139.92 67.183 140.435 68.3926 140.482 69.6643C140.529 70.936 140.103 72.1802 139.287 73.1577L108.77 108.443C108.569 108.675 108.321 108.861 108.042 108.988C107.763 109.116 107.459 109.182 107.152 109.182C106.845 109.182 106.542 109.116 106.263 108.988C105.984 108.861 105.736 108.675 105.535 108.443L101.323 103.568C100.988 103.18 100.804 102.686 100.804 102.174C100.804 101.662 100.988 101.168 101.323 100.78L117.956 81.5244ZM63.2921 125.85C63.083 126.164 62.7995 126.421 62.4669 126.599C62.1342 126.777 61.7627 126.87 61.3854 126.87C61.0081 126.87 60.6366 126.777 60.304 126.599C59.9713 126.421 59.6879 126.164 59.4787 125.85L14.1872 73.4529C12.5648 71.5745 12.5648 68.143 14.1872 66.2711L59.4688 13.8737C59.6783 13.5602 59.9621 13.3031 60.295 13.1254C60.6279 12.9476 60.9996 12.8546 61.3771 12.8546C61.7546 12.8546 62.1263 12.9476 62.4592 13.1254C62.7921 13.3031 63.0759 13.5602 63.2854 13.8737L67.2085 18.4139C67.5431 18.8008 67.7272 19.2949 67.7272 19.8061C67.7272 20.3172 67.5431 20.8115 67.2085 21.1984L35.2255 58.1997C29.5736 64.7378 29.5736 74.9863 35.2255 81.5244L67.2085 118.526C67.5431 118.913 67.7272 119.407 67.7272 119.918C67.7272 120.429 67.5431 120.923 67.2085 121.31L63.2921 125.85ZM93.7125 125.85C93.5029 126.163 93.2192 126.42 92.8866 126.597C92.5541 126.774 92.1829 126.867 91.8058 126.867C91.4288 126.867 91.0576 126.774 90.725 126.597C90.3924 126.42 90.1088 126.163 89.8991 125.85L85.9761 121.31C85.6415 120.923 85.4574 120.429 85.4574 119.918C85.4574 119.407 85.6415 118.913 85.9761 118.526L90.3247 113.491C90.5254 113.259 90.7737 113.073 91.0528 112.946C91.3319 112.818 91.6352 112.752 91.9421 112.752C92.249 112.752 92.5524 112.818 92.8315 112.946C93.1106 113.073 93.3589 113.259 93.5596 113.491L97.7752 118.366C98.11 118.754 98.2943 119.249 98.2943 119.76C98.2943 120.272 98.11 120.767 97.7752 121.154L93.7125 125.85ZM169.7 73.4497L124.406 125.85C124.196 126.164 123.913 126.421 123.58 126.599C123.248 126.777 122.876 126.87 122.499 126.87C122.122 126.87 121.75 126.777 121.417 126.599C121.085 126.421 120.801 126.164 120.592 125.85L116.533 121.154C116.198 120.767 116.014 120.272 116.014 119.76C116.014 119.249 116.198 118.754 116.533 118.366L148.376 81.5276C154.028 74.9896 154.028 64.7412 148.376 58.2031L116.533 21.3644C116.198 20.9769 116.014 20.4821 116.014 19.9704C116.014 19.4587 116.198 18.9641 116.533 18.5766L120.592 13.8804C120.802 13.5668 121.085 13.3098 121.418 13.132C121.751 12.9542 122.123 12.8612 122.501 12.8612C122.878 12.8612 123.25 12.9542 123.583 13.132C123.916 13.3098 124.199 13.5668 124.409 13.8804L169.7 66.2778C171.323 68.1496 171.323 71.5745 169.7 73.4529V73.4497Z" fill="url(#paint0_linear_511_5941)"/>
<defs>
<linearGradient id="paint0_linear_511_5941" x1="40.8167" y1="16.323" x2="167.599" y2="128.011" gradientUnits="userSpaceOnUse">
<stop stop-color="#FF9776"/>
<stop offset="0.239734" stop-color="#5F94BC"/>
<stop offset="0.5625" stop-color="#25BDCE"/>
<stop offset="1" stop-color="#DEAB0C"/>
</linearGradient>
</defs>
</svg>
