<svg width="61" height="47" viewBox="0 0 61 47" fill="none" xmlns="http://www.w3.org/2000/svg">
<path d="M59.1836 19.4402L44.3125 2.23472C43.8616 1.69004 43.2959 1.25147 42.6559 0.950421C42.0157 0.649378 41.3166 0.493305 40.609 0.493305C39.9015 0.493305 39.2024 0.649378 38.5621 0.950421C37.9219 1.25147 37.3564 1.69004 36.9056 2.23472L35.5706 3.77992L34.2345 2.23472C33.7837 1.69023 33.2181 1.25183 32.5781 0.950901C31.9379 0.649975 31.2391 0.493943 30.5316 0.493943C29.8241 0.493943 29.1253 0.649975 28.4852 0.950901C27.845 1.25183 27.2794 1.69023 26.8288 2.23472L25.5374 3.72761L24.246 2.2336C23.7953 1.68892 23.2297 1.2504 22.5895 0.949357C21.9493 0.648314 21.2503 0.492188 20.5426 0.492188C19.835 0.492188 19.136 0.648314 18.4958 0.949357C17.8556 1.2504 17.2899 1.68892 16.8393 2.2336L1.968 19.4402C0.112229 21.587 0.112229 24.952 1.968 27.0988L16.8393 44.3043C17.2947 44.8438 17.8613 45.2788 18.5006 45.5796C19.1398 45.8807 19.8365 46.0403 20.5432 46.0478C21.2497 46.0403 21.9462 45.8804 22.5852 45.5796C23.2242 45.2785 23.7907 44.8435 24.246 44.3043L25.5374 42.8103L26.8277 44.3043C27.2784 44.849 27.844 45.2874 28.4842 45.5885C29.1244 45.8896 29.8234 46.0455 30.5311 46.0455C31.2387 46.0455 31.9377 45.8896 32.5779 45.5885C33.2181 45.2874 33.7837 44.849 34.2345 44.3043L35.5706 42.7591L36.9056 44.3043C37.361 44.8438 37.9278 45.2788 38.5671 45.5796C39.206 45.8807 39.9028 46.0403 40.6097 46.0478C41.316 46.0403 42.0124 45.8804 42.6517 45.5796C43.2906 45.2785 43.857 44.8435 44.3125 44.3043L59.1836 27.0988C61.0404 24.952 61.0404 21.587 59.1836 19.4402ZM29.905 4.88595C29.9737 4.78302 30.0667 4.69863 30.176 4.64025C30.2852 4.58184 30.4072 4.55127 30.5311 4.55127C30.655 4.55127 30.7769 4.58184 30.8862 4.64025C30.9954 4.69863 31.0885 4.78302 31.1571 4.88595L32.4911 6.42796C32.601 6.55517 32.6615 6.71757 32.6615 6.88561C32.6615 7.05363 32.601 7.21606 32.4911 7.34329L31.1069 8.94408C31.041 9.02019 30.9595 9.08123 30.8678 9.12309C30.7762 9.16493 30.6766 9.18663 30.5758 9.18663C30.475 9.18663 30.3754 9.16493 30.2838 9.12309C30.1922 9.08123 30.1106 9.02019 30.0447 8.94408L28.6169 7.29099C28.507 7.16395 28.4466 7.00165 28.4466 6.83383C28.4466 6.66598 28.507 6.50375 28.6169 6.37671L29.905 4.88595ZM22.0343 27.0988L27.4925 33.419C27.6024 33.5464 27.6629 33.7089 27.6629 33.8767C27.6629 34.0448 27.6024 34.2073 27.4925 34.3344L26.0636 35.9867C25.9978 36.0625 25.9163 36.1236 25.8248 36.1656C25.7332 36.2073 25.6337 36.229 25.533 36.229C25.4323 36.229 25.3328 36.2073 25.2413 36.1656C25.1497 36.1236 25.0683 36.0625 25.0025 35.9867L15.0337 24.4485C14.501 23.8318 14.501 22.7051 15.0337 22.0904L25.0069 10.5536C25.0727 10.4775 25.1541 10.4164 25.2456 10.3746C25.3372 10.3328 25.4367 10.3111 25.5374 10.3111C25.6381 10.3111 25.7376 10.3328 25.8291 10.3746C25.9207 10.4164 26.0021 10.4775 26.0679 10.5536L27.4969 12.2067C27.6067 12.3338 27.6672 12.496 27.6672 12.6638C27.6672 12.8317 27.6067 12.9939 27.4969 13.121L22.0387 19.4413C20.1786 21.587 20.1786 24.952 22.0343 27.0988ZM25.1117 24.4485C24.5789 23.8318 24.5789 22.7051 25.1117 22.0904L30.0447 16.3825C30.1106 16.3064 30.1922 16.2453 30.2838 16.2035C30.3754 16.1616 30.475 16.1399 30.5758 16.1399C30.6766 16.1399 30.7762 16.1616 30.8678 16.2035C30.9595 16.2453 31.041 16.3064 31.1069 16.3825L36.0401 22.0904C36.331 22.3907 36.5008 22.7879 36.5162 23.2055C36.532 23.6231 36.3921 24.0317 36.1242 24.3527L31.1025 30.1565C31.0366 30.2327 30.9551 30.2937 30.8634 30.3355C30.7718 30.3774 30.6722 30.3991 30.5714 30.3991C30.4707 30.3991 30.3711 30.3774 30.2794 30.3355C30.1878 30.2937 30.1063 30.2327 30.0404 30.1565L25.1117 24.4485ZM39.1174 27.0988C40.9732 24.952 40.9732 21.587 39.1174 19.4402L33.6593 13.1199C33.5493 12.9928 33.4889 12.8306 33.4889 12.6628C33.4889 12.4949 33.5493 12.3327 33.6593 12.2056L35.0423 10.6037C35.1083 10.5276 35.1897 10.4665 35.2813 10.4247C35.3729 10.3828 35.4724 10.3612 35.5732 10.3612C35.674 10.3612 35.7738 10.3828 35.8654 10.4247C35.957 10.4665 36.0385 10.5276 36.1045 10.6037L46.0382 22.0893C46.3292 22.3898 46.4983 22.787 46.5137 23.2046C46.5291 23.6221 46.3892 24.0307 46.1213 24.3516L36.1012 35.9374C36.0352 36.0136 35.9538 36.0747 35.8621 36.1164C35.7705 36.1584 35.6707 36.1801 35.5699 36.1801C35.4691 36.1801 35.3696 36.1584 35.278 36.1164C35.1864 36.0747 35.105 36.0136 35.039 35.9374L33.656 34.3367C33.546 34.2093 33.4856 34.0471 33.4856 33.879C33.4856 33.7109 33.546 33.5487 33.656 33.4213L39.1174 27.0988ZM21.1687 41.6529C21.1 41.756 21.0069 41.8404 20.8977 41.8989C20.7885 41.9573 20.6665 41.9878 20.5426 41.9878C20.4188 41.9878 20.2968 41.9573 20.1876 41.8989C20.0783 41.8404 19.9853 41.756 19.9166 41.6529L5.0453 24.4485C4.51259 23.8318 4.51259 22.7051 5.0453 22.0904L19.9133 4.88595C19.9821 4.78302 20.0753 4.6986 20.1846 4.64025C20.2939 4.58187 20.416 4.55134 20.5399 4.55134C20.6639 4.55134 20.7859 4.58187 20.8952 4.64025C21.0045 4.6986 21.0977 4.78302 21.1665 4.88595L22.4546 6.37671C22.5645 6.50375 22.6249 6.66598 22.6249 6.83383C22.6249 7.00165 22.5645 7.16395 22.4546 7.29099L11.9531 19.4402C10.0974 21.587 10.0974 24.952 11.9531 27.0988L22.4546 39.2481C22.5645 39.3752 22.6249 39.5374 22.6249 39.7052C22.6249 39.873 22.5645 40.0352 22.4546 40.1622L21.1687 41.6529ZM31.1571 41.6529C31.0883 41.7557 30.9951 41.8401 30.8859 41.8982C30.7768 41.9563 30.6549 41.9868 30.5311 41.9868C30.4073 41.9868 30.2854 41.9563 30.1762 41.8982C30.067 41.8401 29.9738 41.7557 29.905 41.6529L28.6169 40.1622C28.507 40.0352 28.4466 39.873 28.4466 39.7052C28.4466 39.5374 28.507 39.3752 28.6169 39.2481L30.0447 37.5949C30.1106 37.5187 30.1922 37.4576 30.2838 37.4159C30.3754 37.3739 30.475 37.3522 30.5758 37.3522C30.6766 37.3522 30.7762 37.3739 30.8678 37.4159C30.9595 37.4576 31.041 37.5187 31.1069 37.5949L32.4911 39.1956C32.601 39.323 32.6615 39.4855 32.6615 39.6533C32.6615 39.8214 32.601 39.9839 32.4911 40.111L31.1571 41.6529ZM56.1073 24.4475L41.2352 41.6529C41.1662 41.756 41.0733 41.8404 40.964 41.8989C40.855 41.9573 40.7328 41.9878 40.609 41.9878C40.4853 41.9878 40.3631 41.9573 40.2538 41.8989C40.1448 41.8404 40.0515 41.756 39.9829 41.6529L38.6501 40.111C38.5401 39.9839 38.4797 39.8214 38.4797 39.6533C38.4797 39.4855 38.5401 39.323 38.6501 39.1956L49.1056 27.0998C50.9615 24.9531 50.9615 21.5881 49.1056 19.4413L38.6501 7.34549C38.5401 7.21826 38.4797 7.05579 38.4797 6.88778C38.4797 6.71977 38.5401 6.55737 38.6501 6.43013L39.9829 4.88815C40.0518 4.78518 40.1448 4.7008 40.2541 4.64242C40.3634 4.58404 40.4856 4.5535 40.6097 4.5535C40.7335 4.5535 40.8556 4.58404 40.965 4.64242C41.0743 4.7008 41.1672 4.78518 41.2362 4.88815L56.1073 22.0926C56.6402 22.7072 56.6402 23.8318 56.1073 24.4485V24.4475Z" fill="url(#paint0_linear_281_5)"/>
<defs>
<linearGradient id="paint0_linear_281_5" x1="13.789" y1="5.69017" x2="55.4174" y2="42.3625" gradientUnits="userSpaceOnUse">
<stop stop-color="#FF9776"/>
<stop offset="0.239734" stop-color="#5F94BC"/>
<stop offset="0.5625" stop-color="#25BDCE"/>
<stop offset="1" stop-color="#DEAB0C"/>
</linearGradient>
</defs>
</svg>
