<svg width="138" height="83" viewBox="0 0 138 83" fill="none" xmlns="http://www.w3.org/2000/svg">
<path d="M1.16558 54.9469C4.36018 51.5611 7.46131 49.479 9.57494 48.251C19.3051 42.6041 28.665 42.9741 32.9784 44.562C34.3367 45.0637 35.6863 45.7095 36.6538 46.786C38.3108 48.6255 38.5319 51.4094 37.8844 53.8017C37.7198 54.413 37.5016 55.056 37.6814 55.662C38.0904 57.0399 40.2796 57.013 41.1899 55.8985C42.1002 54.784 42.0916 53.2017 42.0377 51.766C42.2261 52.4319 43.3921 52.1046 43.4744 51.4184C43.5567 50.7322 42.9873 50.1484 42.4137 49.7624C41.8402 49.3763 41.1758 49.0319 40.8878 48.4027C41.5484 48.5565 42.241 48.7092 42.8917 48.5199C43.5425 48.3306 44.106 47.6672 43.9382 47.0132C43.753 46.2942 42.8889 46.0307 42.1608 45.885C41.1814 45.6923 40.2036 45.4966 39.2241 45.3038C38.6464 45.19 37.9386 44.9344 37.9008 44.3475C37.8642 43.7653 38.5211 43.4226 39.0715 43.2304C39.8178 42.9707 40.5625 42.714 41.3058 42.4526C42.1391 42.1647 43.0658 41.7895 43.3907 40.9686C43.7184 40.1495 42.7748 39.0044 42.056 39.5154C42.8271 38.7168 41.6789 37.328 40.5717 37.4107C39.4646 37.4935 38.5918 38.3393 37.669 38.9522C35.503 40.3932 32.5833 40.6183 30.2221 39.5297C30.3706 38.7287 31.2547 38.3053 32.0532 38.1386C32.8518 37.9719 33.7325 37.9075 34.3335 37.356C34.9344 36.8044 34.8642 35.5397 34.0584 35.4198C33.577 35.3498 33.1624 35.7146 32.7356 35.9509C32.3118 36.1888 31.6374 36.2153 31.4776 35.7581C31.7872 35.317 31.7846 34.6759 31.4683 34.2383C28.4354 34.449 26.3287 37.2348 23.741 38.8286C23.3032 39.0977 22.8165 39.3425 22.305 39.3179C20.9419 39.2528 20.9306 38.3337 21.6707 37.1877C22.4108 36.0416 23.2978 35.0421 24.6036 34.6425C27.8491 33.6559 31.1716 32.1562 34.5596 32.2956C40.33 32.5354 45.513 35.9947 49.5342 40.1408C50.7198 41.3629 51.9141 42.9234 51.5989 44.5973C51.2407 46.4818 49.2167 47.4594 47.5135 48.3437C47.1489 48.5334 46.7554 48.7731 46.6555 49.1705C46.4474 49.9999 47.6022 50.4665 48.4546 50.4172C49.307 50.3679 50.4023 50.3058 50.7528 51.085C50.9097 51.4384 50.8375 51.8558 50.9805 52.213C51.3035 53.0194 52.5739 53.0073 53.1621 52.3622C53.7487 51.72 53.8166 50.7665 53.7821 49.8952C53.7477 49.0238 53.6485 48.1151 54.0052 47.3206C55.571 48.2442 56.3889 50.0897 56.6017 51.8958C56.8162 53.6989 56.5286 55.5221 56.3941 57.3317C56.3745 57.5832 56.3753 57.8741 56.5629 58.0452C56.8358 58.2929 57.2703 58.1044 57.5638 57.8815C59.1526 56.6722 60.041 54.6034 59.8205 52.6203C60.9516 54.0659 63.0593 54.6628 64.7771 54.0184C65.0435 53.9172 65.3168 53.7768 65.4477 53.5228C65.7937 52.8555 64.9397 52.2212 64.2405 51.9508C63.2437 51.5637 62.2441 51.1749 61.2474 50.7878C61.5537 49.9445 63.1125 50.3776 63.5093 49.5747C63.7257 49.1387 63.4083 48.5944 62.9739 48.375C62.5395 48.1556 62.0286 48.1706 61.5435 48.1613C60.5962 48.144 59.616 48.0136 58.8052 47.5219C57.9944 47.0303 57.389 46.1079 57.5003 45.1677C59.2912 45.3346 61.0547 45.7799 62.71 46.4806C63.2032 45.8982 62.3298 45.0801 62.3724 44.3199C62.4166 43.4823 63.459 43.1582 64.2791 42.9882C65.1009 42.8152 66.1127 42.2655 65.909 41.4495C65.5798 40.1373 62.7871 40.8085 62.7207 39.4557C62.7049 39.1092 62.9148 38.732 62.7362 38.4366C62.4893 38.0352 61.8734 38.2524 61.4803 38.512C59.6115 39.744 58.0412 41.1523 55.8162 40.8878C53.5912 40.6234 51.6078 38.9211 51.0079 36.766C52.5176 35.9113 54.4919 36.4469 55.8472 37.5314C56.7522 38.2541 57.9295 39.2594 58.8812 38.5965C59.4244 38.2196 59.5438 37.4489 60.0204 36.9903C60.4373 36.5876 61.0569 36.4862 61.571 36.2141C62.0852 35.9421 62.5146 35.2797 62.1825 34.8016C61.7931 34.2393 60.9385 34.5777 60.2802 34.7666C59.6404 34.9504 58.8972 34.9058 58.3773 34.4879C57.8557 34.073 57.6719 33.2292 58.0939 32.7157C58.4223 32.3167 58.9888 32.2122 59.3991 31.8958C60.1988 31.2786 60.0742 29.8295 59.1815 29.3572C58.7669 29.1375 58.2247 29.0912 57.9508 28.7094C57.4381 27.9936 58.3713 26.9277 57.9584 26.1478C57.6002 25.4702 56.6176 25.6091 55.8551 25.7065C55.0927 25.8038 54.026 25.4155 54.2122 24.6716C53.4636 25.0712 52.8965 25.7953 52.6842 26.6183C51.8487 25.8024 50.3183 25.0483 49.7209 26.0492C49.2147 26.8987 50.1504 27.847 50.464 28.7853C50.9494 30.2347 49.7555 31.8133 48.3127 32.3143C46.8699 32.8153 45.2852 32.536 43.7814 32.2524C42.7985 32.0655 41.7345 31.8357 41.0859 31.0767C40.4343 30.316 40.5875 28.8547 41.5579 28.6145C41.9381 28.5201 42.3317 28.6336 42.7183 28.6842C43.8796 28.8407 45.1071 28.4272 45.9364 27.5955C46.9194 26.6133 47.2866 25.1891 47.6158 23.8372C47.7309 23.3661 47.7821 22.7405 47.3494 22.5181C47.1413 22.4097 46.8878 22.4478 46.6629 22.518C44.9076 23.0505 43.6516 25.2328 41.8502 24.8871C42.1192 24.3872 41.3752 23.8478 40.8428 24.0427C40.3105 24.2376 40.0155 24.7892 39.7142 25.2704C39.4128 25.7517 38.9613 26.2483 38.3946 26.2036C37.5945 26.1419 37.3107 25.1384 37.1402 24.3533C36.9696 23.5681 36.3648 22.6108 35.6125 22.8945C35.0299 23.1153 34.9192 23.9459 34.3879 24.2748C33.5118 24.8205 32.107 23.6995 31.4254 24.4791C30.8564 25.1315 31.6557 26.0442 31.9619 26.8527C32.4772 28.2095 31.4067 29.7102 30.1116 30.3632C28.8165 31.0162 27.3198 31.1212 25.9438 31.5745C24.3986 32.0831 23.036 33.0228 21.6988 33.9457C18.1649 36.3901 14.6327 38.8315 11.0988 41.2758C9.61069 42.3039 8.10818 43.3433 6.8733 44.6667C5.67613 45.9451 4.75396 47.4608 3.58576 48.7638C2.5222 49.9468 2.1538 50.4285 1.76898 51.2853C1.14027 52.6801 1.10225 54.0236 1.16897 54.941L1.16558 54.9469Z" fill="#769883"/>
<path d="M136.861 39.1662C132.899 41.6097 129.365 42.8183 127.005 43.4574C116.145 46.3935 107.2 43.6136 103.444 40.9634C102.262 40.1273 101.126 39.1542 100.47 37.8639C99.3454 35.6583 99.8523 32.912 101.097 30.7688C101.414 30.221 101.791 29.6563 101.774 29.0244C101.736 27.5876 99.6145 27.047 98.4468 27.888C97.2791 28.7289 96.8778 30.2594 96.5583 31.6602C96.5486 30.9682 95.3377 30.9826 95.0806 31.6241C94.8235 32.2657 95.2224 32.9769 95.6765 33.4982C96.1306 34.0196 96.6832 34.5242 96.7985 35.2065C96.2003 34.887 95.5707 34.5602 94.8932 34.5746C94.2156 34.5891 93.4996 35.084 93.4924 35.7592C93.4852 36.5016 94.2517 36.9797 94.9172 37.3089C95.8134 37.7486 96.7072 38.1907 97.6034 38.6304C98.132 38.8899 98.7495 39.32 98.6342 39.8966C98.5189 40.4684 97.7956 40.6294 97.2142 40.6727C96.4261 40.7303 95.6404 40.7856 94.8547 40.8457C93.9754 40.9081 92.9831 41.0307 92.4569 41.7395C91.9283 42.4459 92.5434 43.7962 93.3699 43.4886C92.4184 44.0605 93.1681 45.6991 94.2589 45.9057C95.3497 46.1124 96.4117 45.5213 97.4617 45.1681C99.9268 44.3368 102.805 44.875 104.804 46.5376C104.453 47.2729 103.49 47.4531 102.676 47.4074C101.861 47.3618 100.994 47.196 100.27 47.5732C99.5472 47.9504 99.2877 49.1902 100.035 49.5146C100.482 49.7068 100.977 49.4617 101.45 49.344C101.921 49.2238 102.579 49.3728 102.615 49.8558C102.202 50.2017 102.039 50.8216 102.231 51.3262C105.215 51.9077 107.971 49.7621 110.883 48.8923C111.376 48.7457 111.909 48.6352 112.397 48.7914C113.697 49.207 113.47 50.0977 112.458 51.0132C111.447 51.9286 110.331 52.6645 108.966 52.7125C105.576 52.8255 101.979 53.4141 98.7423 52.4026C93.2305 50.6775 89.1195 45.9946 86.3084 40.949C85.4795 39.4617 84.7298 37.6453 85.4674 36.11C86.3012 34.3824 88.5092 33.962 90.3833 33.5487C90.7846 33.4598 91.2267 33.3301 91.4261 32.972C91.8418 32.2248 90.8471 31.4752 90.0109 31.3022C89.1748 31.1292 88.1008 30.9057 87.9638 30.0624C87.9038 29.6804 88.0816 29.2959 88.0359 28.9139C87.9326 28.0513 86.7024 27.7342 85.9672 28.2051C85.2344 28.6736 84.922 29.577 84.7298 30.4276C84.5376 31.2782 84.3982 32.1816 83.848 32.8567C82.5746 31.5593 82.2622 29.565 82.5241 27.7654C82.7836 25.9682 83.5333 24.2815 84.1315 22.5684C84.2156 22.3305 84.2901 22.0494 84.1532 21.8356C83.9537 21.5256 83.4852 21.5953 83.144 21.7347C81.2964 22.4915 79.9028 24.2599 79.6025 26.2325C78.8841 24.5434 77.0028 23.4214 75.1767 23.5991C74.8932 23.628 74.5929 23.6929 74.4006 23.9043C73.8937 24.4593 74.5544 25.293 75.1599 25.7351C76.0225 26.367 76.8874 27.0014 77.75 27.6333C77.2358 28.3685 75.8423 27.5468 75.2512 28.2195C74.9292 28.5847 75.095 29.1926 75.4578 29.517C75.8206 29.8413 76.318 29.9591 76.7841 30.0936C77.6947 30.3555 78.6078 30.7351 79.2637 31.4199C79.9196 32.1047 80.2656 33.1522 79.9148 34.0316C78.2281 33.4069 76.64 32.5203 75.2224 31.4151C74.5953 31.85 75.2272 32.8663 74.9893 33.5895C74.7298 34.3872 73.639 34.4305 72.8029 34.3824C71.9643 34.3368 70.8447 34.6059 70.8302 35.4468C70.8086 36.7995 73.6798 36.874 73.3939 38.1979C73.3194 38.5367 73.0191 38.8466 73.1152 39.1782C73.2498 39.6299 73.9009 39.5794 74.3478 39.4305C76.4718 38.7241 78.3531 37.7702 80.4338 38.6016C82.5145 39.4329 83.9898 41.5905 84.0114 43.8274C82.3319 44.2623 80.5635 43.2339 79.5352 41.8356C78.848 40.9033 77.971 39.6275 76.8802 40.0215C76.2579 40.245 75.9432 40.9586 75.3641 41.2782C74.8572 41.5593 74.2325 41.4968 73.6654 41.6265C73.0984 41.7563 72.5121 42.2849 72.7092 42.8327C72.9398 43.4766 73.8528 43.3709 74.5376 43.3589C75.2031 43.3469 75.9095 43.5823 76.3036 44.1205C76.7 44.6563 76.6592 45.5189 76.1186 45.9057C75.6981 46.2061 75.1239 46.1604 74.6457 46.3598C73.7135 46.7491 73.4588 48.1811 74.1988 48.8683C74.5424 49.1878 75.0542 49.3728 75.22 49.8125C75.5299 50.6366 74.3526 51.4247 74.5496 52.2849C74.7202 53.0321 75.7053 53.1522 76.467 53.2556C77.2286 53.3589 78.1585 54.01 77.786 54.6804C78.6126 54.4881 79.3478 53.9355 79.7659 53.1955C80.3617 54.1998 81.6448 55.3243 82.4809 54.5122C83.1897 53.8226 82.5313 52.6645 82.4713 51.677C82.3776 50.1513 83.9393 48.9355 85.4626 48.825C86.9859 48.7145 88.4444 49.3944 89.8235 50.0576C90.7245 50.4925 91.6928 50.9898 92.1229 51.8908C92.5554 52.7942 92.0292 54.1662 91.0297 54.147C90.638 54.1398 90.2872 53.9283 89.9268 53.7793C88.8456 53.3276 87.553 53.4093 86.5366 53.998C85.3329 54.6924 84.6097 55.973 83.9417 57.1936C83.7087 57.6188 83.4972 58.2099 83.8576 58.5367C84.0306 58.6953 84.2853 58.7241 84.5208 58.7145C86.354 58.6544 88.132 56.8716 89.7827 57.6717C89.3934 58.085 89.9725 58.7986 90.5371 58.7481C91.1018 58.6977 91.5294 58.2412 91.9451 57.8543C92.3608 57.4675 92.9254 57.1047 93.4612 57.2945C94.218 57.5612 94.2324 58.604 94.194 59.4065C94.1556 60.2089 94.4919 61.2902 95.292 61.2109C95.9119 61.1484 96.2339 60.3747 96.8322 60.1945C97.8197 59.8942 98.8865 61.3406 99.7466 60.764C100.465 60.281 99.9292 59.1926 99.8427 58.3325C99.6962 56.8884 101.119 55.7159 102.539 55.4204C103.959 55.1249 105.431 55.4108 106.878 55.3291C108.502 55.2378 110.061 54.6828 111.592 54.1373C115.638 52.6909 119.682 51.2469 123.728 49.8005C125.431 49.1926 127.152 48.5775 128.687 47.6189C130.174 46.6938 131.457 45.4684 132.923 44.5122C134.256 43.6448 134.737 43.2748 135.33 42.5468C136.299 41.3622 136.683 40.0744 136.856 39.171L136.861 39.1662Z" fill="#769883"/>
</svg>
